/* XPM */
static char * NBuddyBodyField_xpm[] = {
"20 20 104 2",
"  	c None",
". 	c #6BBFFF",
"+ 	c #6ABFFF",
"@ 	c #6BBEFF",
"# 	c #6ABEFE",
"$ 	c #6ABEFF",
"% 	c #69BEFF",
"& 	c #67BDFF",
"* 	c #66BDFF",
"= 	c #68BDFF",
"- 	c #63BBFF",
"; 	c #6BBEFD",
"> 	c #74C3FE",
", 	c #8ECEFF",
"' 	c #92D0FF",
") 	c #9AD4FF",
"! 	c #9BD4FF",
"~ 	c #98D2FF",
"{ 	c #84CAFF",
"] 	c #70C1FF",
"^ 	c #65BCFF",
"/ 	c #80C9FF",
"( 	c #AADAFF",
"_ 	c #CDE9FF",
": 	c #DCEFFD",
"< 	c #E2F2FE",
"[ 	c #F1F8FF",
"} 	c #F4FAFF",
"| 	c #FAFDFF",
"1 	c #F8FCFF",
"2 	c #ECF6FF",
"3 	c #DFF1FF",
"4 	c #C7E7FF",
"5 	c #6FC1FF",
"6 	c #F8FCFE",
"7 	c #FCFDFF",
"8 	c #FFFFFF",
"9 	c #FFFFFE",
"0 	c #EEF8FF",
"a 	c #E1F1FF",
"b 	c #DBEFFF",
"c 	c #E1F2FF",
"d 	c #FEFEFF",
"e 	c #FBFDFF",
"f 	c #EFF8FF",
"g 	c #A3D7FF",
"h 	c #64BCFF",
"i 	c #FAFCFF",
"j 	c #F2F9FF",
"k 	c #D6EDFF",
"l 	c #A5D8FF",
"m 	c #98D3FF",
"n 	c #7FC7FF",
"o 	c #66BCFF",
"p 	c #63BCFF",
"q 	c #6DC0FF",
"r 	c #D4ECFF",
"s 	c #75C3FF",
"t 	c #95D1FF",
"u 	c #61BBFF",
"v 	c #7EC7FF",
"w 	c #B0DDFF",
"x 	c #E7F4FF",
"y 	c #DBF0FF",
"z 	c #88CBFF",
"A 	c #65BDFF",
"B 	c #B4DFFF",
"C 	c #EDF7FF",
"D 	c #D7EDFF",
"E 	c #C8E7FF",
"F 	c #BDE2FF",
"G 	c #B6DFFF",
"H 	c #B1DDFF",
"I 	c #C4E5FF",
"J 	c #AEDCFF",
"K 	c #B3DEFF",
"L 	c #C3E4FF",
"M 	c #97D2FF",
"N 	c #74C3FF",
"O 	c #6CBFFF",
"P 	c #68BEFF",
"Q 	c #6BBFFE",
"R 	c #82C9FF",
"S 	c #C3E5FF",
"T 	c #7BC6FF",
"U 	c #A6D8FF",
"V 	c #9CD4FF",
"W 	c #6CC0FF",
"X 	c #FDFEFF",
"Y 	c #DAEFFF",
"Z 	c #69BDFF",
"` 	c #CBE8FF",
" .	c #76C3FF",
"..	c #86CBFF",
"+.	c #F9FCFF",
"@.	c #CAE8FF",
"#.	c #ECF6FE",
"$.	c #78C5FF",
"%.	c #81C9FF",
"&.	c #F8FBFF",
"*.	c #99D2FF",
"=.	c #61BAFF",
"-.	c #76C4FF",
";.	c #6ABFFE",
". . . + @ . . . . . . @ + . . . . . . . ",
". . # $ % & & * * * = % $ . . $ $ $ $ . ",
"& - * ; > , ' ) ! ~ { ] ^ ^ % . $ . $ . ",
"/ ( _ : < [ } | | 1 2 3 4 ~ 5 - . . $ . ",
"6 7 8 9 9 8 0 a b c 1 8 d e f g h $ . # ",
"i j k l m n o h p - q g e 8 8 8 r s % $ ",
"t ] u h * % $ = + v w x 8 8 8 8 8 y z . ",
"A % . . . $ ^ { B C 8 d D E F G H I J q ",
". $ $ . & % K C 8 } L M N 5 O % P O ] . ",
"Q @ . h R c 8 8 S T . + $ $ $ $ $ $ $ # ",
". $ P U i 8 C V & $ . @ + . . . . . $ . ",
"$ W w X 8 Y v p $ . . . . . . . . . $ . ",
"Z ( X 8 `  .o . . + . . . . . . . . $ . ",
"..+.8 @.s % . $ . . . . . . . . . . $ . ",
"#.8 k $.$ . + . . . . . . . . . . . @ Q ",
"8 x %.= . . . . . . . . . . . . . . $ . ",
"&.*.h . + . . . . . . . . . . . . . $ . ",
"S =.. . . . . . . . . . . . . . . . $ . ",
"-.% . $ $ $ $ $ $ $ $ $ $ $ $ $ $ $ @ . ",
"# . $ . . . . . . . . . . . . . . . @ ;."};
